<svg height="512pt" viewBox="0 -31 512 512" width="512pt" xmlns="http://www.w3.org/2000/svg"><path d="m185.28125 365.816406c3.378906 6.679688 5.089844 13.890625 5.089844 21.441406 0 26.242188-21.351563 47.589844-47.59375 47.589844-12.828125 0-24.855469-5.027344-33.871094-14.15625l-10.695312 10.558594c11.859374 12.011719 27.6875 18.628906 44.566406 18.628906 34.53125 0 62.625-28.09375 62.625-62.621094 0-9.929687-2.257813-19.421874-6.710938-28.226562zm0 0"/><path d="m95.1875 387.257812c0-26.242187 21.347656-47.59375 47.589844-47.59375 13.335937 0 26.148437 5.648438 35.148437 15.503907l11.097657-10.136719c-11.84375-12.964844-28.699219-20.398438-46.246094-20.398438-34.527344 0-62.621094 28.09375-62.621094 62.625 0 10.628907 2.714844 21.132813 7.851562 30.375l13.132813-7.296874c-3.894531-7.015626-5.953125-14.996094-5.953125-23.078126zm0 0"/><path d="m115.226562 387.257812c0 15.191407 12.359376 27.550782 27.550782 27.550782 15.195312 0 27.554687-12.359375 27.554687-27.550782 0-15.195312-12.359375-27.554687-27.554687-27.554687-15.191406 0-27.550782 12.359375-27.550782 27.554687zm40.078126 0c0 6.90625-5.621094 12.523438-12.527344 12.523438s-12.523438-5.617188-12.523438-12.523438 5.617188-12.527343 12.523438-12.527343 12.527344 5.621093 12.527344 12.527343zm0 0"/><path d="m353.691406 387.257812c0-26.242187 21.351563-47.59375 47.59375-47.59375 13.335938 0 26.144532 5.648438 35.144532 15.503907l11.097656-10.136719c-11.839844-12.964844-28.695313-20.398438-46.242188-20.398438-34.53125 0-62.625 28.09375-62.625 62.625 0 10.628907 2.714844 21.132813 7.851563 30.375l13.136719-7.296874c-3.898438-7.015626-5.957032-14.996094-5.957032-23.078126zm0 0"/><path d="m443.785156 365.8125c3.378906 6.683594 5.089844 13.894531 5.089844 21.445312 0 26.242188-21.347656 47.589844-47.589844 47.589844-12.832031 0-24.859375-5.027344-33.871094-14.15625l-10.699218 10.558594c11.859375 12.011719 27.6875 18.628906 44.570312 18.628906 34.527344 0 62.621094-28.09375 62.621094-62.621094 0-9.925781-2.257812-19.421874-6.707031-28.226562zm0 0"/><path d="m373.730469 387.257812c0 15.191407 12.359375 27.550782 27.554687 27.550782 15.191406 0 27.550782-12.359375 27.550782-27.550782 0-15.195312-12.359376-27.554687-27.550782-27.554687-15.195312 0-27.554687 12.359375-27.554687 27.554687zm40.078125 0c0 6.90625-5.617188 12.523438-12.523438 12.523438s-12.527344-5.617188-12.527344-12.523438 5.621094-12.527343 12.527344-12.527343 12.523438 5.621093 12.523438 12.527343zm0 0"/><path d="m390.296875 168.328125-19.574219 84.8125v40.433594h111.21875v-89.632813l-29.203125-35.613281zm76.613281 110.214844h-81.15625v-23.691407l16.5-71.492187h43.371094l21.285156 25.957031zm0 0"/><path d="m45.089844 366.214844v-57.109375h-15.03125v57.109375c0 15.195312 12.359375 27.554687 27.554687 27.554687h4.015625v-15.03125h-4.015625c-6.90625 0-12.523437-5.617187-12.523437-12.523437zm0 0"/><path d="m395.273438 153.300781h64.574218l12.421875 15.144531 11.621094-9.527343-16.929687-20.648438h-71.6875zm0 0"/><path d="m493.421875 170.539062-11.621094 9.53125 15.167969 18.5v167.644532c0 6.90625-5.617188 12.523437-12.523438 12.523437h-2.011718v15.03125h2.011718c15.195313 0 27.554688-12.359375 27.554688-27.554687v-173.019532zm0 0"/><path d="m223.925781 378.738281h96.210938v15.03125h-96.210938zm0 0"/><path d="m205.988281 93.183594h214.832031v15.027344h-48.53125l-40.082031 170.332031h-199.804687v15.03125h211.710937l40.078125-170.332031h51.660156v-45.089844h-229.863281zm0 0"/><path d="m15.800781 93.183594h175.15625v-15.03125h-190.957031v11.089844l17.269531 113.398437 14.855469-2.261719zm0 0"/><path d="m117.371094 293.574219v-15.03125h-73.339844l-9.640625-63.308594-14.859375 2.261719 11.585938 76.078125zm0 0"/><path d="m70.136719 145.785156v80.15625c0 15.195313 12.359375 27.554688 27.554687 27.554688 15.191406 0 27.554688-12.359375 27.554688-27.554688v-80.15625c0-15.195312-12.363282-27.554687-27.554688-27.554687-15.195312 0-27.554687 12.359375-27.554687 27.554687zm40.078125 0v80.15625c0 6.90625-5.617188 12.523438-12.523438 12.523438s-12.523437-5.617188-12.523437-12.523438v-80.15625c0-6.90625 5.617187-12.523437 12.523437-12.523437s12.523438 5.617187 12.523438 12.523437zm0 0"/><path d="m215.421875 225.941406v-80.15625c0-15.195312-12.359375-27.554687-27.554687-27.554687-15.195313 0-27.554688 12.359375-27.554688 27.554687v80.15625c0 15.195313 12.359375 27.554688 27.554688 27.554688 15.195312 0 27.554687-12.359375 27.554687-27.554688zm-40.078125 0v-80.15625c0-6.90625 5.617188-12.523437 12.523438-12.523437s12.523437 5.617187 12.523437 12.523437v80.15625c0 6.90625-5.617187 12.523438-12.523437 12.523438s-12.523438-5.617188-12.523438-12.523438zm0 0"/><path d="m305.597656 225.941406v-80.15625c0-15.195312-12.363281-27.554687-27.554687-27.554687-15.191407 0-27.554688 12.359375-27.554688 27.554687v80.15625c0 15.195313 12.363281 27.554688 27.554688 27.554688 15.191406 0 27.554687-12.359375 27.554687-27.554688zm-40.078125 0v-80.15625c0-6.90625 5.617188-12.523437 12.523438-12.523437s12.523437 5.617187 12.523437 12.523437v80.15625c0 6.90625-5.617187 12.523438-12.523437 12.523438s-12.523438-5.617188-12.523438-12.523438zm0 0"/><path d="m324.507812 32.585938 16.394532 17.304687 6.632812 13.953125 13.574219-6.453125-7.65625-16.105469-19.675781-20.769531-37.796875-20.515625h-18.96875v15.03125h15.15625zm0 0"/><path d="m60.273438 54.011719 31.613281-18.066407 44.546875-2.78125 47.566406 20.679688 46.339844-22.066406 16.75-16.746094h14.894531v-15.03125h-21.121094l-19.320312 19.320312-37.824219 18.011719-44.613281-19.394531-51.644531 3.226562-38.519532 22.011719-7.191406 14.011719 13.371094 6.863281zm0 0"/><path d="m316.117188 63.125h-50.097657v-15.03125h50.097657zm-65.128907 0h-15.027343v-15.03125h15.027343zm0 0"/><path d="m114.722656 48.09375h15.03125v15.03125h-15.03125zm0 0"/><path d="m332.148438 323.632812h-40.078126v-15.03125h40.078126zm-55.105469 0h-15.03125v-15.03125h15.03125zm0 0"/></svg>