<?xml version="1.0"?>
<svg xmlns="http://www.w3.org/2000/svg" height="512px" viewBox="-8 1 511 511.99947" width="512px"><path d="m486.898438 230.398438h-8.53125v-17.066407c0-42.414062-34.386719-76.796875-76.800782-76.796875-42.414062 0-76.800781 34.382813-76.800781 76.796875 0-42.414062-34.382813-76.800781-76.800781-76.800781-42.414063 0-76.796875 34.386719-76.796875 76.800781 0-42.414062-34.386719-76.800781-76.800781-76.800781-42.417969 0-76.800782 34.386719-76.800782 76.800781v17.066407h-8.535156c-4.710938 0-8.53125 3.820312-8.53125 8.535156v34.132812c0 4.710938 3.820312 8.53125 8.53125 8.53125h8.535156v221.867188c0 4.714844 3.820313 8.535156 8.53125 8.535156h443.734375c4.714844 0 8.535157-3.820312 8.535157-8.535156v-221.863282h8.53125c4.714843 0 8.535156-3.820312 8.535156-8.535156v-34.132812c0-4.714844-3.820313-8.535156-8.535156-8.535156zm-409.597657-74.238282c11.128907-3.355468 23.003907-3.355468 34.132813 0v31.574219h-34.132813zm76.800781 338.773438h-119.46875v-213.332032h119.46875zm0-230.398438h-136.535156v-17.066406h136.535156zm0-34.136718h-119.46875v-17.066407c.011719-19.519531 9.574219-37.800781 25.601563-48.945312v31.878906c0 4.714844 3.820313 8.535156 8.53125 8.535156h51.199219c4.714844 0 8.535156-3.820312 8.535156-8.535156v-31.878906c16.027344 11.144531 25.585938 29.425781 25.597656 48.945312v17.066407zm76.796876-74.238282c11.132812-3.355468 23.003906-3.355468 34.132812 0v31.574219h-34.132812zm-42.664063 57.171875c.011719-19.519531 9.570313-37.800781 25.597656-48.945312v31.878906c0 4.714844 3.820313 8.535156 8.535157 8.535156h51.199218c4.714844 0 8.53125-3.820312 8.53125-8.535156v-31.878906c16.027344 11.144531 25.589844 29.425781 25.601563 48.945312v17.066407h-119.464844zm136.53125 281.601563h-153.597656v-213.332032h153.597656zm0-230.398438h-153.597656v-17.066406h153.597656zm59.734375-108.375c11.128906-3.355468 23.003906-3.355468 34.132812 0v31.574219h-34.132812zm-42.667969 57.171875c.011719-19.519531 9.574219-37.800781 25.601563-48.945312v31.878906c0 4.714844 3.820312 8.535156 8.53125 8.535156h51.203125c4.710937 0 8.53125-3.820312 8.53125-8.535156v-31.878906c16.027343 11.144531 25.589843 29.425781 25.601562 48.945312v17.066407h-119.46875zm119.46875 281.601563h-119.46875v-213.332032h119.46875zm17.066407-230.398438h-136.535157v-17.066406h136.535157zm0 0" fill="#FFFFFF"/><path d="m277.960938 1.21875c-2.828126-1.699219-6.382813-1.617188-9.128907.214844l-23.425781 15.632812h-23.039062c-4.714844 0-8.535157 3.820313-8.535157 8.53125v14.507813l-15.632812 23.425781c-2.253907 3.382812-1.808594 7.890625 1.066406 10.769531l25.601563 25.597657c2.285156 2.28125 5.664062 3.078124 8.730468 2.054687l18.585938-6.183594 5.210937 10.445313c1.449219 2.890625 4.40625 4.71875 7.640625 4.71875 1.085938-.003906 2.164063-.207032 3.171875-.605469l42.667969-17.070313c3.238281-1.296874 5.359375-4.4375 5.359375-7.925781v-24.21875l8.097656-24.285156c1.261719-3.792969-.277343-7.953125-3.703125-10.007813zm21.640624 55.816406c-.289062.871094-.433593 1.78125-.433593 2.699219v19.820313l-30.011719 12-4.976562-10.035157c-1.902344-3.796875-6.308594-5.613281-10.332032-4.269531l-20.601562 6.828125-16.964844-16.894531 13.183594-19.78125c.933594-1.40625 1.433594-3.050782 1.433594-4.738282v-8.53125h17.066406c1.6875-.003906 3.332031-.5 4.738281-1.433593l21.101563-14.070313 32.1875 19.292969zm0 0" fill="#FFFFFF"/><path d="m196.765625 409.601562h102.402344c4.710937 0 8.53125-3.820312 8.535156-8.535156 0-1.683594-.5-3.332031-1.4375-4.734375l-51.199219-76.800781c-2.933594-3.921875-8.488281-4.722656-12.410156-1.789062-.679688.507812-1.28125 1.109374-1.789062 1.789062l-51.199219 76.800781c-2.617188 3.917969-1.558594 9.21875 2.359375 11.832031 1.40625.9375 3.054687 1.4375 4.738281 1.4375zm51.199219-69.972656 35.253906 52.90625h-70.503906zm0 0" fill="#FFFFFF"/><path d="m367.433594 460.800781h68.265625c4.714843 0 8.535156-3.820312 8.535156-8.535156v-85.332031c0-.121094-.058594-.214844-.070313-.332032-.039062-.875-.214843-1.738281-.519531-2.558593-.078125-.191407-.121093-.386719-.195312-.566407-.078125-.179687-.058594-.210937-.113281-.3125l-16.167969-32.378906v-32.117187c0-4.714844-3.820313-8.535157-8.535157-8.535157h-34.132812c-4.714844 0-8.535156 3.820313-8.535156 8.535157v32.117187l-16.210938 32.335938c-.050781.101562-.058594.210937-.113281.316406-.050781.101562-.117187.375-.195313.5625-.304687.820312-.480468 1.683594-.519531 2.558594 0 .121094-.070312.214844-.070312.332031v85.378906c0 4.710938 3.820312 8.53125 8.535156 8.53125zm25.601562-153.601562h17.066406v17.066406h-17.066406zm-3.261718 34.132812h23.585937l8.535156 17.066407h-40.652343zm-13.808594 34.136719h51.203125v68.265625h-51.203125zm0 0" fill="#FFFFFF"/><path d="m77.300781 366.933594c4.710938 0 8.53125 3.820312 8.53125 8.535156 0 4.710938-3.820312 8.53125-8.53125 8.53125v17.066406c6.316407-.023437 12.402344-2.394531 17.066407-6.65625 4.664062 4.261719 10.746093 6.632813 17.066406 6.65625v-17.066406c-4.714844 0-8.535156-3.820312-8.535156-8.53125 0-4.714844 3.820312-8.535156 8.535156-8.535156 4.710937 0 8.53125 3.820312 8.53125 8.535156h17.066406c-.039062-11.046875-7.171875-20.816406-17.679688-24.21875 1.824219-8.480469-.765624-17.304688-6.886718-23.449219l-12.066406 12.066407c3.332031 3.332031 3.332031 8.730468 0 12.0625-3.371094 3.238281-8.695313 3.238281-12.066407 0-3.332031-3.332032-3.332031-8.730469 0-12.0625l-12.066406-12.066407c-6.117187 6.144531-8.710937 14.96875-6.886719 23.449219-10.507812 3.402344-17.640625 13.171875-17.679687 24.21875h17.066406c0-4.714844 3.820313-8.535156 8.535156-8.535156zm0 0" fill="#FFFFFF"/></svg>
