<?xml version="1.0" encoding="iso-8859-1"?>
<!-- Generator: Adobe Illustrator 19.0.0, SVG Export Plug-In . SVG Version: 6.00 Build 0)  -->
<svg xmlns="http://www.w3.org/2000/svg" xmlns:xlink="http://www.w3.org/1999/xlink" version="1.1" id="Capa_1" x="0px" y="0px" viewBox="0 0 480 480" style="enable-background:new 0 0 480 480;" xml:space="preserve" width="512px" height="512px">
<g>
	<g>
		<path d="M238.901,0C160.202,0,96.175,64.023,96.175,142.727v1.102c0,43.516,16.949,84.43,47.723,115.203l24.277,24.281V296    c0,13.234,10.766,24,24,24h96c4.41,0,8,3.586,8,8s-3.59,8-8,8h-96c-13.234,0-24,10.766-24,24s10.766,24,24,24h40v16    c-22.055,0-40,17.945-40,40v16c0,4.422,3.582,8,8,8h8v16h16v-16h32v16h16v-16h8c4.418,0,8-3.578,8-8v-16c0-22.055-17.945-40-40-40    v-24c0-4.422-3.582-8-8-8h-48c-4.41,0-8-3.586-8-8s3.59-8,8-8h96c13.234,0,24-10.766,24-24s-10.766-24-24-24h-96    c-4.41,0-8-3.586-8-8v-16c0-2.125-0.844-4.156-2.344-5.656l-26.621-26.625c-27.75-27.75-43.035-64.648-43.035-103.891v-1.102    C112.175,72.852,169.022,16,238.901,16c70.703,0,128.535,57.516,128.922,128.219c0.215,38.375-15.574,75.586-43.66,102.445    L300.682,272h-52.508v-16c0-3.805-2.691-7.086-6.418-7.844c-3.004-0.609-73.582-15.695-73.582-80.156    c0-100.367,76.242-110.797,92.926-111.875c11.477,11.344,61.867,65.891,35.766,124.625    c-16.332,36.742-38.758,38.344-48.691,36.992v-22.43l37.656-37.656l-11.313-11.313l-26.344,26.344v-49.375l21.656-21.656    l-11.313-11.313l-10.344,10.344V80h-16v52.688l-18.344-18.344l-11.313,11.313l29.656,29.656v41.375l-34.344-34.344l-11.313,11.313    l45.656,45.656V224c0,3.273,1.992,6.219,5.035,7.43c0.457,0.195,46.715,17.813,74.273-44.18    c33.984-76.469-38.875-142.461-41.992-145.227c-1.465-1.305-3.355-2.023-5.316-2.023c-1.121,0-112,1.461-112,128    c0,65.008,59.957,88.219,80,94.156V280c0,4.422,3.582,8,8,8h64c2.227,0,4.355-0.93,5.867-2.563l25.516-27.555    c30.91-29.539,48.504-71,48.266-113.758C383.389,64.656,318.378,0,238.901,0z M248.175,416c13.234,0,24,10.766,24,24v8h-64v-8    c0-13.234,10.766-24,24-24H248.175z" fill="#FFFFFF"/>
	</g>
</g>
<g>
</g>
<g>
</g>
<g>
</g>
<g>
</g>
<g>
</g>
<g>
</g>
<g>
</g>
<g>
</g>
<g>
</g>
<g>
</g>
<g>
</g>
<g>
</g>
<g>
</g>
<g>
</g>
<g>
</g>
</svg>
