<?xml version="1.0"?>
<svg xmlns="http://www.w3.org/2000/svg" height="512px" version="1.1" viewBox="1 -90 639.99878 639" width="512px">
<g id="surface1">
<path d="M 565.332031 309.835938 L 565.332031 11.167969 C 565.332031 5.273438 560.554688 0.5 554.667969 0.5 L 415.234375 0.5 C 412.378906 0.507812 409.648438 1.660156 407.644531 3.703125 L 333.75 78.367188 C 331.78125 80.351562 330.679688 83.039062 330.667969 85.835938 L 330.667969 139.167969 L 213.335938 139.167969 C 207.441406 139.167969 202.664062 143.941406 202.664062 149.835938 L 202.664062 288.5 L 106.664062 288.5 L 106.664062 256.5 C 106.628906 227.0625 82.773438 203.203125 53.335938 203.164062 L 10.667969 203.164062 C 4.773438 203.164062 0 207.945312 0 213.832031 L 0 256.5 C 0 262.394531 4.773438 267.167969 10.667969 267.167969 L 32 267.167969 C 37.890625 267.167969 42.664062 271.945312 42.664062 277.832031 L 42.664062 363.167969 C 42.664062 369.058594 37.890625 373.832031 32 373.832031 L 10.667969 373.832031 C 4.773438 373.832031 0 378.609375 0 384.503906 L 0 427.167969 C 0 433.058594 4.773438 437.835938 10.667969 437.835938 L 53.335938 437.835938 C 82.773438 437.796875 106.628906 413.941406 106.664062 384.503906 L 106.664062 352.5 L 156.605469 352.5 C 138.871094 389.660156 154.609375 434.15625 191.765625 451.894531 C 201.832031 456.699219 212.847656 459.183594 224 459.171875 L 565.332031 459.171875 C 606.550781 459.121094 639.953125 425.71875 640 384.503906 C 639.949219 343.28125 606.550781 309.878906 565.332031 309.835938 Z M 224 288.5 L 544 288.5 L 544 309.835938 L 224 309.835938 Z M 352 90.214844 L 419.675781 21.832031 L 544 21.832031 L 544 267.167969 L 352 267.167969 Z M 224 160.5 L 330.667969 160.5 L 330.667969 267.167969 L 224 267.167969 Z M 85.332031 384.496094 C 85.332031 402.171875 71.003906 416.5 53.328125 416.5 L 21.332031 416.5 L 21.332031 395.167969 L 32 395.167969 C 49.671875 395.167969 64 380.839844 64 363.164062 L 64 277.832031 C 64 260.160156 49.671875 245.832031 32 245.832031 L 21.332031 245.832031 L 21.332031 224.496094 L 53.335938 224.496094 C 71.003906 224.496094 85.332031 238.828125 85.332031 256.5 Z M 106.664062 309.835938 L 202.664062 309.835938 L 202.664062 312.933594 C 202.230469 313.0625 201.824219 313.265625 201.386719 313.394531 C 200.320312 313.714844 199.359375 314.132812 198.347656 314.464844 C 196.035156 315.292969 193.757812 316.242188 191.542969 317.300781 C 190.472656 317.824219 189.410156 318.363281 188.339844 318.921875 C 186.097656 320.148438 183.921875 321.488281 181.824219 322.953125 C 181.023438 323.507812 180.203125 324.019531 179.421875 324.570312 C 176.726562 326.585938 174.164062 328.78125 171.757812 331.132812 L 106.664062 331.132812 Z M 602.988281 422.21875 C 593.046875 432.269531 579.472656 437.902344 565.332031 437.832031 L 224 437.832031 C 194.605469 437.894531 170.722656 414.113281 170.664062 384.71875 C 170.632812 371.457031 175.554688 358.664062 184.46875 348.84375 C 185.066406 348.160156 185.652344 347.476562 186.355469 346.773438 C 194.160156 338.84375 204.3125 333.644531 215.308594 331.945312 C 218.171875 331.417969 221.082031 331.15625 224 331.167969 L 565.332031 331.167969 C 594.773438 331.203125 618.632812 355.058594 618.664062 384.503906 C 618.730469 398.667969 613.074219 412.265625 602.988281 422.21875 Z M 602.988281 422.21875 " style=" fill-rule:nonzero;fill-opacity:1;" stroke="#FFFFFF" fill="#FFFFFF"/>
<path d="M 394.667969 341.832031 C 371.101562 341.832031 352 360.933594 352 384.496094 C 352 408.0625 371.101562 427.164062 394.667969 427.164062 C 418.230469 427.164062 437.332031 408.0625 437.332031 384.496094 C 437.332031 360.933594 418.230469 341.832031 394.667969 341.832031 Z M 394.667969 405.832031 C 382.886719 405.832031 373.335938 396.28125 373.335938 384.496094 C 373.335938 372.714844 382.886719 363.164062 394.667969 363.164062 C 406.449219 363.164062 416 372.714844 416 384.496094 C 416 396.28125 406.449219 405.832031 394.667969 405.832031 Z M 394.667969 405.832031 " style=" fill-rule:nonzero;fill-opacity:1;" stroke="#FFFFFF" fill="#FFFFFF"/>
<path d="M 522.664062 341.832031 C 499.101562 341.832031 480 360.933594 480 384.496094 C 480 408.0625 499.101562 427.164062 522.664062 427.164062 C 546.230469 427.164062 565.332031 408.0625 565.332031 384.496094 C 565.332031 360.933594 546.230469 341.832031 522.664062 341.832031 Z M 522.664062 405.832031 C 510.882812 405.832031 501.332031 396.28125 501.332031 384.496094 C 501.332031 372.714844 510.882812 363.164062 522.664062 363.164062 C 534.449219 363.164062 544 372.714844 544 384.496094 C 544 396.28125 534.449219 405.832031 522.664062 405.832031 Z M 522.664062 405.832031 " style=" fill-rule:nonzero;fill-opacity:1;" stroke="#FFFFFF" fill="#FFFFFF"/>
<path d="M 266.664062 341.832031 C 243.101562 341.832031 224 360.933594 224 384.496094 C 224 408.0625 243.101562 427.164062 266.664062 427.164062 C 290.230469 427.164062 309.332031 408.0625 309.332031 384.496094 C 309.332031 360.933594 290.230469 341.832031 266.664062 341.832031 Z M 266.664062 405.832031 C 254.882812 405.832031 245.332031 396.28125 245.332031 384.496094 C 245.332031 372.714844 254.882812 363.164062 266.664062 363.164062 C 278.445312 363.164062 287.996094 372.714844 287.996094 384.496094 C 287.996094 396.28125 278.445312 405.832031 266.664062 405.832031 Z M 266.664062 405.832031 " style=" fill-rule:nonzero;fill-opacity:1;" stroke="#FFFFFF" fill="#FFFFFF"/>
<path d="M 384 181.832031 L 512 181.832031 C 517.890625 181.832031 522.664062 177.058594 522.664062 171.164062 L 522.664062 53.835938 C 522.664062 47.941406 517.890625 43.164062 512 43.164062 L 433.066406 43.164062 C 430.210938 43.175781 427.480469 44.328125 425.484375 46.367188 L 376.414062 95.914062 C 374.449219 97.902344 373.34375 100.582031 373.335938 103.378906 L 373.335938 171.167969 C 373.335938 177.058594 378.109375 181.832031 384 181.832031 Z M 394.667969 107.765625 L 437.480469 64.5 L 501.332031 64.5 L 501.332031 160.5 L 394.667969 160.5 Z M 394.667969 107.765625 " style=" fill-rule:nonzero;fill-opacity:1;" stroke="#FFFFFF" fill="#FFFFFF"/>
<path d="M 309.332031 171.167969 L 245.332031 171.167969 C 239.441406 171.167969 234.667969 175.945312 234.667969 181.832031 C 234.667969 187.726562 239.441406 192.5 245.332031 192.5 L 309.332031 192.5 C 315.222656 192.5 320 187.726562 320 181.832031 C 320 175.945312 315.222656 171.167969 309.332031 171.167969 Z M 309.332031 171.167969 " style=" fill-rule:nonzero;fill-opacity:1;" stroke="#FFFFFF" fill="#FFFFFF"/>
<path d="M 309.332031 203.164062 L 245.332031 203.164062 C 239.441406 203.164062 234.667969 207.945312 234.667969 213.832031 C 234.667969 219.722656 239.441406 224.503906 245.332031 224.503906 L 309.332031 224.503906 C 315.222656 224.503906 320 219.722656 320 213.832031 C 320 207.945312 315.222656 203.164062 309.332031 203.164062 Z M 309.332031 203.164062 " style=" fill-rule:nonzero;fill-opacity:1;" stroke="#FFFFFF" fill="#FFFFFF"/>
</g>
</svg>
