<?xml version="1.0" encoding="iso-8859-1"?>
<!-- Generator: Adobe Illustrator 19.0.0, SVG Export Plug-In . SVG Version: 6.00 Build 0)  -->
<svg version="1.1" id="Capa_1" xmlns="http://www.w3.org/2000/svg" xmlns:xlink="http://www.w3.org/1999/xlink" x="0px" y="0px"
	 viewBox="0 0 480 480" style="enable-background:new 0 0 480 480;" xml:space="preserve">
<g>
	<g>
		<path d="M121.08,96.108l-2.448-0.328l-2.184,1.088l-112,56L0,155.092v178.216l4.848,2.08L59.4,358.764l59.4,25.456L480,343.18
			V145.052L121.08,96.108z M48,336.476l-32-13.712V164.98l32-16V336.476z M112,363.9l-48-20.568V140.98l48-24V363.9z M464,328.892
			l-336,38.184v-253.88l336,45.824V328.892z"/>
	</g>
</g>
<g>
	<g>
		<path d="M32,208.036c-4.418,0-8,3.582-8,8v56c0,4.418,3.582,8,8,8s8-3.582,8-8v-56C40,211.618,36.418,208.036,32,208.036z"/>
	</g>
</g>
<g>
	<g>
		<path d="M88,208.036c-4.418,0-8,3.582-8,8v64c0,4.418,3.582,8,8,8s8-3.582,8-8v-64C96,211.618,92.418,208.036,88,208.036z"/>
	</g>
</g>
<g>
	<g>
		<path d="M440.88,168.084l-288-32c-4.391-0.486-8.345,2.68-8.831,7.071c-0.032,0.292-0.049,0.586-0.049,0.881v192
			c0,2.238,0.937,4.373,2.584,5.888c1.477,1.358,3.41,2.112,5.416,2.112c0.221,0.012,0.443,0.012,0.664,0l288-24
			c4.157-0.346,7.35-3.829,7.336-8v-136C448,171.958,444.933,168.533,440.88,168.084z M192,324.676l-32,2.664V152.972l32,3.56
			V324.676z M240,320.676l-32,2.664V158.308l32,3.552V320.676z M288,316.676l-32,2.664V163.644l32,3.552V316.676z M336,312.676
			l-32,2.664v-146.4l32,3.56V312.676z M384,308.676l-32,2.664V174.276l32,3.56V308.676z M432,304.676l-32,2.664V179.644l32,3.56
			V304.676z"/>
	</g>
</g>
<g>
</g>
<g>
</g>
<g>
</g>
<g>
</g>
<g>
</g>
<g>
</g>
<g>
</g>
<g>
</g>
<g>
</g>
<g>
</g>
<g>
</g>
<g>
</g>
<g>
</g>
<g>
</g>
<g>
</g>
</svg>
