<svg viewBox="-8 1 511 511.99947" xmlns="http://www.w3.org/2000/svg">
	<path d="m486.9 230.4h-8.5312v-17.066c0-42.414-34.387-76.797-76.801-76.797-42.414 0-76.801 34.383-76.801 76.797 0-42.414-34.383-76.801-76.801-76.801-42.414 0-76.797 34.387-76.797 76.801 0-42.414-34.387-76.801-76.801-76.801-42.418 0-76.801 34.387-76.801 76.801v17.066h-8.5352c-4.7109 0-8.5312 3.8203-8.5312 8.5352v34.133c0 4.7109 3.8203 8.5312 8.5312 8.5312h8.5352v221.87c0 4.7148 3.8203 8.5352 8.5312 8.5352h443.73c4.7148 0 8.5352-3.8203 8.5352-8.5352v-221.86h8.5312c4.7148 0 8.5352-3.8203 8.5352-8.5352v-34.133c0-4.7148-3.8203-8.5352-8.5352-8.5352zm-409.6-74.238c11.129-3.3555 23.004-3.3555 34.133 0v31.574h-34.133zm76.801 338.77h-119.47v-213.33h119.47zm0-230.4h-136.54v-17.066h136.54zm0-34.137h-119.47v-17.066c0.011719-19.52 9.5742-37.801 25.602-48.945v31.879c0 4.7148 3.8203 8.5352 8.5312 8.5352h51.199c4.7148 0 8.5352-3.8203 8.5352-8.5352v-31.879c16.027 11.145 25.586 29.426 25.598 48.945v17.066zm76.797-74.238c11.133-3.3555 23.004-3.3555 34.133 0v31.574h-34.133zm-42.664 57.172c0.011719-19.52 9.5703-37.801 25.598-48.945v31.879c0 4.7148 3.8203 8.5352 8.5352 8.5352h51.199c4.7148 0 8.5312-3.8203 8.5312-8.5352v-31.879c16.027 11.145 25.59 29.426 25.602 48.945v17.066h-119.46zm136.53 281.6h-153.6v-213.33h153.6zm0-230.4h-153.6v-17.066h153.6zm59.734-108.38c11.129-3.3555 23.004-3.3555 34.133 0v31.574h-34.133zm-42.668 57.172c0.011719-19.52 9.5742-37.801 25.602-48.945v31.879c0 4.7148 3.8203 8.5352 8.5312 8.5352h51.203c4.7109 0 8.5312-3.8203 8.5312-8.5352v-31.879c16.027 11.145 25.59 29.426 25.602 48.945v17.066h-119.47zm119.47 281.6h-119.47v-213.33h119.47zm17.066-230.4h-136.54v-17.066h136.54z"/>
	<path d="m277.96 1.2188c-2.8281-1.6992-6.3828-1.6172-9.1289 0.21484l-23.426 15.633h-23.039c-4.7148 0-8.5352 3.8203-8.5352 8.5312v14.508l-15.633 23.426c-2.2539 3.3828-1.8086 7.8906 1.0664 10.77l25.602 25.598c2.2852 2.2812 5.6641 3.0781 8.7305 2.0547l18.586-6.1836 5.2109 10.445c1.4492 2.8906 4.4062 4.7188 7.6406 4.7188 1.0859-0.003906 2.1641-0.20703 3.1719-0.60547l42.668-17.07c3.2383-1.2969 5.3594-4.4375 5.3594-7.9258v-24.219l8.0977-24.285c1.2617-3.793-0.27734-7.9531-3.7031-10.008zm21.641 55.816c-0.28906 0.87109-0.43359 1.7812-0.43359 2.6992v19.82l-30.012 12-4.9766-10.035c-1.9023-3.7969-6.3086-5.6133-10.332-4.2695l-20.602 6.8281-16.965-16.895 13.184-19.781c0.93359-1.4062 1.4336-3.0508 1.4336-4.7383v-8.5312h17.066c1.6875-0.003906 3.332-0.5 4.7383-1.4336l21.102-14.07 32.188 19.293z"/>
	<path d="m196.77 409.6h102.4c4.7109 0 8.5312-3.8203 8.5352-8.5352 0-1.6836-0.5-3.332-1.4375-4.7344l-51.199-76.801c-2.9336-3.9219-8.4883-4.7227-12.41-1.7891-0.67969 0.50781-1.2812 1.1094-1.7891 1.7891l-51.199 76.801c-2.6172 3.918-1.5586 9.2188 2.3594 11.832 1.4062 0.9375 3.0547 1.4375 4.7383 1.4375zm51.199-69.973 35.254 52.906h-70.504z"/>
	<path d="m367.43 460.8h68.266c4.7148 0 8.5352-3.8203 8.5352-8.5352v-85.332c0-0.12109-0.058594-0.21484-0.070313-0.33203-0.039062-0.875-0.21484-1.7383-0.51953-2.5586-0.078125-0.19141-0.12109-0.38672-0.19531-0.56641-0.078125-0.17969-0.058594-0.21094-0.11328-0.3125l-16.168-32.379v-32.117c0-4.7148-3.8203-8.5352-8.5352-8.5352h-34.133c-4.7148 0-8.5352 3.8203-8.5352 8.5352v32.117l-16.211 32.336c-0.050781 0.10156-0.058594 0.21094-0.11328 0.31641-0.050781 0.10156-0.11719 0.375-0.19531 0.5625-0.30469 0.82031-0.48047 1.6836-0.51953 2.5586 0 0.12109-0.070312 0.21484-0.070312 0.33203v85.379c0 4.7109 3.8203 8.5312 8.5352 8.5312zm25.602-153.6h17.066v17.066h-17.066zm-3.2617 34.133h23.586l8.5352 17.066h-40.652zm-13.809 34.137h51.203v68.266h-51.203z"/>
	<path d="m77.301 366.93c4.7109 0 8.5312 3.8203 8.5312 8.5352 0 4.7109-3.8203 8.5312-8.5312 8.5312v17.066c6.3164-0.023437 12.402-2.3945 17.066-6.6562 4.6641 4.2617 10.746 6.6328 17.066 6.6562v-17.066c-4.7148 0-8.5352-3.8203-8.5352-8.5312 0-4.7148 3.8203-8.5352 8.5352-8.5352 4.7109 0 8.5312 3.8203 8.5312 8.5352h17.066c-0.039062-11.047-7.1719-20.816-17.68-24.219 1.8242-8.4805-0.76562-17.305-6.8867-23.449l-12.066 12.066c3.332 3.332 3.332 8.7305 0 12.062-3.3711 3.2383-8.6953 3.2383-12.066 0-3.332-3.332-3.332-8.7305 0-12.062l-12.066-12.066c-6.1172 6.1445-8.7109 14.969-6.8867 23.449-10.508 3.4023-17.641 13.172-17.68 24.219h17.066c0-4.7148 3.8203-8.5352 8.5352-8.5352z"/>
</svg>
